<?xml version="1.0"?>
<svg xmlns="http://www.w3.org/2000/svg" viewBox="0 0 64 64" width="512" height="512"><rect fill="#b6dedc" height="36" rx="10.59655" width="58" x="3" y="3"/><circle cx="14" cy="13" fill="#4bad32" r="6"/><g fill="#344496"><circle cx="8" cy="47" r="4"/><path d="m6.92711 51h2.14578a3.92711 3.92711 0 0 1 3.92711 3.92711v6.07289a0 0 0 0 1 0 0h-10a0 0 0 0 1 0 0v-6.07289a3.92711 3.92711 0 0 1 3.92711-3.92711z"/><circle cx="24" cy="47" r="4"/><path d="m22.92711 51h2.14577a3.92711 3.92711 0 0 1 3.92712 3.92711v6.07289a0 0 0 0 1 0 0h-10a0 0 0 0 1 0 0v-6.07289a3.92711 3.92711 0 0 1 3.92711-3.92711z"/><circle cx="40" cy="47" r="4"/><path d="m38.92711 51h2.14577a3.92711 3.92711 0 0 1 3.92712 3.92711v6.07289a0 0 0 0 1 0 0h-10a0 0 0 0 1 0 0v-6.07289a3.92711 3.92711 0 0 1 3.92711-3.92711z"/><circle cx="56" cy="47" r="4"/><path d="m54.92711 51h2.14577a3.92711 3.92711 0 0 1 3.92712 3.92711v6.07289a0 0 0 0 1 0 0h-10a0 0 0 0 1 0 0v-6.07289a3.92711 3.92711 0 0 1 3.92711-3.92711z"/></g><path d="m24 8h14v18h-14z" fill="#fcd821"/><path d="m54.09546 7.87244a3.16925 3.16925 0 0 0 -4.36755 0l-.72791.70214-.72791-.70214a3.16925 3.16925 0 0 0 -4.36755 0 2.90474 2.90474 0 0 0 0 4.2127l5.09546 4.91486 5.09546-4.91486a2.90474 2.90474 0 0 0 0-4.2127z" fill="#ec322c"/><path d="m31 13-3 4 3 4 3-4z" fill="#ec322c"/><circle cx="49" cy="28" fill="#4bad32" r="7"/><path d="m8 23h12v7h-3l1 5-6-5h-4z" fill="#ec322c"/><path d="m11.42432 50.62421a5 5 0 1 0 -6.84864 0 4.91043 4.91043 0 0 0 -2.57568 4.30255v6.07324a.99943.99943 0 0 0 1 1h10a.99943.99943 0 0 0 1-1v-6.07324a4.91043 4.91043 0 0 0 -2.57568-4.30255zm-3.42432-6.62421a3 3 0 1 1 -3 3 3.00328 3.00328 0 0 1 3-3zm4 16h-8v-5.07324a2.92951 2.92951 0 0 1 2.92676-2.92676h2.14648a2.92951 2.92951 0 0 1 2.92676 2.92676z"/><path d="m27.42432 50.62421a5 5 0 1 0 -6.84864 0 4.91043 4.91043 0 0 0 -2.57568 4.30255v6.07324a.99943.99943 0 0 0 1 1h10a.99943.99943 0 0 0 1-1v-6.07324a4.91043 4.91043 0 0 0 -2.57568-4.30255zm-3.42432-6.62421a3 3 0 1 1 -3 3 3.00328 3.00328 0 0 1 3-3zm4 16h-8v-5.07324a2.92951 2.92951 0 0 1 2.92676-2.92676h2.14648a2.92951 2.92951 0 0 1 2.92676 2.92676z"/><path d="m43.42432 50.62421a5 5 0 1 0 -6.84864 0 4.91043 4.91043 0 0 0 -2.57568 4.30255v6.07324a.99943.99943 0 0 0 1 1h10a.99943.99943 0 0 0 1-1v-6.07324a4.91043 4.91043 0 0 0 -2.57568-4.30255zm-3.42432-6.62421a3 3 0 1 1 -3 3 3.00328 3.00328 0 0 1 3-3zm4 16h-8v-5.07324a2.92951 2.92951 0 0 1 2.92676-2.92676h2.14648a2.92951 2.92951 0 0 1 2.92676 2.92676z"/><path d="m59.42432 50.62421a5 5 0 1 0 -6.84864 0 4.91043 4.91043 0 0 0 -2.57568 4.30255v6.07324a.99943.99943 0 0 0 1 1h10a.99943.99943 0 0 0 1-1v-6.07324a4.91043 4.91043 0 0 0 -2.57568-4.30255zm-3.42432-6.62421a3 3 0 1 1 -3 3 3.00328 3.00328 0 0 1 3-3zm4 16h-8v-5.07324a2.92951 2.92951 0 0 1 2.92676-2.92676h2.14648a2.92951 2.92951 0 0 1 2.92676 2.92676z"/><path d="m38 27h-14a.99943.99943 0 0 1 -1-1v-18a.99943.99943 0 0 1 1-1h14a.99943.99943 0 0 1 1 1v18a.99943.99943 0 0 1 -1 1zm-13-2h12v-16h-12z"/><path d="m49 18a.99867.99867 0 0 1 -.69434-.28027l-5.0957-4.915a3.90561 3.90561 0 0 1 0-5.65235 4.18143 4.18143 0 0 1 5.75684 0l.0332.03219.0332-.03223a4.18143 4.18143 0 0 1 5.75684 0 3.90561 3.90561 0 0 1 0 5.65235l-5.0957 4.915a.99867.99867 0 0 1 -.69434.28031zm-2.91113-10.002a2.13948 2.13948 0 0 0 -1.49024.59375 1.90546 1.90546 0 0 0 0 2.77343l4.40137 4.24517 4.40137-4.24512a1.90546 1.90546 0 0 0 0-2.77343 2.16417 2.16417 0 0 0 -2.97949 0l-.72754.70215a1.00147 1.00147 0 0 1 -1.38868 0l-.72753-.70215a2.13888 2.13888 0 0 0 -1.48926-.59375z"/><path d="m31 22a.99947.99947 0 0 1 -.7998-.40039l-3-4a.999.999 0 0 1 0-1.19922l3-4a1.03525 1.03525 0 0 1 1.5996 0l3 4a.999.999 0 0 1 0 1.19922l-3 4a.99947.99947 0 0 1 -.7998.40039zm-1.75-5 1.75 2.333 1.75-2.333-1.75-2.333z"/><path d="m49 36a8 8 0 1 1 8-8 8.00917 8.00917 0 0 1 -8 8zm0-14a6 6 0 1 0 6 6 6.00657 6.00657 0 0 0 -6-6z"/><path d="m49 33a3.00328 3.00328 0 0 1 -3-3h2a1 1 0 0 0 2 0h2a3.00328 3.00328 0 0 1 -3 3z"/><path d="m51.5 28a1.5 1.5 0 1 1 1.5-1.5 1.50164 1.50164 0 0 1 -1.5 1.5z"/><path d="m46.5 28a1.5 1.5 0 1 1 1.5-1.5 1.50164 1.50164 0 0 1 -1.5 1.5z"/><path d="m18 36a1.00152 1.00152 0 0 1 -.64062-.23145l-5.72168-4.76855h-3.6377a.99943.99943 0 0 1 -1-1v-7a.99943.99943 0 0 1 1-1h12a.99943.99943 0 0 1 1 1v7a.99943.99943 0 0 1 -1 1h-1.78027l.76074 3.80371a.99952.99952 0 0 1 -.98047 1.19629zm-9-7h3a1.00184 1.00184 0 0 1 .64063.23145l3.82324 3.18655-.44434-2.22168a1 1 0 0 1 .98047-1.19632h2v-5h-10z"/><path d="m50.40332 40h-36.80664a11.60969 11.60969 0 0 1 -11.59668-11.59668v-14.80664a11.60969 11.60969 0 0 1 11.59668-11.59668h36.80664a11.60969 11.60969 0 0 1 11.59668 11.59668v14.80664a11.60969 11.60969 0 0 1 -11.59668 11.59668zm-36.80664-36a9.60708 9.60708 0 0 0 -9.59668 9.59668v14.80664a9.60708 9.60708 0 0 0 9.59668 9.59668h36.80664a9.60708 9.60708 0 0 0 9.59668-9.59668v-14.80664a9.60708 9.60708 0 0 0 -9.59668-9.59668z"/><path d="m14 6a7.00672 7.00672 0 0 0 -6.59485 4.67584l-.00574.01068-.00439.01691a6.92559 6.92559 0 0 0 -.283 1.08643c-.007.03869-.01147.07733-.01776.11608a6.99554 6.99554 0 1 0 6.90574-5.90594zm-1.08356 11.87427a4.92145 4.92145 0 0 1 -3.82812-5.74768 4.99761 4.99761 0 0 1 3.91168 4.87341 4.86329 4.86329 0 0 1 -.08356.87427zm2.00537.03253a6.823 6.823 0 0 0 .07819-.9068 6.99585 6.99585 0 0 0 -5.17023-6.74695 5.00752 5.00752 0 0 1 3.1753-2.15246 7.02811 7.02811 0 0 0 5.629 6.75494 5.00531 5.00531 0 0 1 -3.71226 3.05127zm.08863-9.8038a5.003 5.003 0 0 1 3.97809 4.78357 5.01469 5.01469 0 0 1 -3.97809-4.78357z"/></svg>
