<?xml version="1.0" encoding="iso-8859-1"?>
<!-- Generator: Adobe Illustrator 21.0.0, SVG Export Plug-In . SVG Version: 6.00 Build 0)  -->
<svg version="1.1" id="Capa_1" xmlns="http://www.w3.org/2000/svg" xmlns:xlink="http://www.w3.org/1999/xlink" x="0px" y="0px"
	 viewBox="0 0 512 512" style="enable-background:new 0 0 512 512;" xml:space="preserve">
<path style="fill:#E3A76F;" d="M345.147,436.885v55.905c0,10.612-8.594,19.207-19.207,19.207H28.799
	c-10.612,0-19.206-8.605-19.206-19.207v-55.905c0-49.213,39.95-88.766,88.756-88.766h2.049c3.398-0.01,6.367-0.01,8.939-0.01
	c17.941-0.01,17.262,0.136,19.081-0.22c5.573-1.046,9.776-5.939,9.776-11.846v-32.652c0-2.593-1.537-4.914-3.91-5.98
	c-33.698-15.129-57.306-49.036-57.306-88.212V63.451h197.23v145.748c0,39.312-23.796,73.303-57.682,88.348v38.497
	c0,6.671,5.405,12.076,12.076,12.076c8.521,0.042,14.575,0.021,19.102,0.01c2.541-0.01,4.611-0.021,6.357-0.021
	c4.768,0,7.214,0.084,10.748,0.429C309.891,352.772,345.147,390.715,345.147,436.885z"/>
<path style="fill:#F2BB88;" d="M345.147,436.885v55.905c0,10.612-8.594,19.207-19.207,19.207H63.228
	c-10.602,0-19.196-8.594-19.196-19.196v-55.915c0-49.213,39.95-82.733,88.745-82.733c29.244-0.084,27.937,0.188,30.08-0.23
	c5.562-1.046,9.776-5.939,9.776-11.846v-38.685c0-2.593-1.537-4.914-3.91-5.98c-33.708-15.129-57.316-49.036-57.316-88.212V63.451
	h162.8v145.748c0,39.312-23.796,73.303-57.682,88.348v38.497c0,6.671,5.405,12.076,12.076,12.076
	c26.358,0.115,29.087-0.282,36.207,0.418C309.891,352.772,345.147,390.715,345.147,436.885z"/>
<path style="fill:#E3A76F;" d="M50.105,196.314c0,17.285,14.012,31.298,31.297,31.298v-62.595
	C64.117,165.016,50.105,179.028,50.105,196.314z"/>
<path style="fill:#F2BB88;" d="M269.778,165.016v62.595c17.285,0,31.297-14.012,31.297-31.298
	C301.075,179.028,287.063,165.016,269.778,165.016z"/>
<g>
	<circle style="fill:#7C3F2C;" cx="127.681" cy="177.354" r="11.334"/>
	<circle style="fill:#7C3F2C;" cx="223.264" cy="177.354" r="11.334"/>
</g>
<path style="fill:#FF883E;" d="M176.387,260.882c-19.529,0-35.415-15.887-35.415-35.415c0-4.332,3.51-7.842,7.842-7.842
	c4.332,0,7.842,3.51,7.842,7.842c0,10.88,8.853,19.732,19.732,19.732s19.732-8.853,19.732-19.732c0-4.332,3.51-7.842,7.842-7.842
	s7.842,3.51,7.842,7.842C211.803,244.995,195.915,260.882,176.387,260.882z"/>
<path style="fill:#EBE1DC;" d="M418.988,166.346v155.837c0,14.355-11.647,26.003-26.002,26.003
	c-63.445-0.028-145.153-0.053-145.288-0.052c-24.168,23.296-45.916,44.261-70.229,67.698l-68.138-67.719
	c-4.893,0-3.141,0.001-10.989,0.01c-48.806,0-88.756,39.553-88.756,88.766v55.905c0,10.602,8.594,19.206,19.206,19.206h297.141
	c10.612,0,19.207-8.594,19.207-19.206v-55.905c0-4.433-0.324-8.783-0.951-13.038h91.296c26.41,0,47.823-21.413,47.823-47.823
	V166.346L418.988,166.346L418.988,166.346z"/>
<path style="fill:#7C3F2C;" d="M304.914,11.823v96.963c0,14.899-13.791,27.09-30.655,27.09h-1.276
	c-16.864,0-30.655-12.191-30.655-27.09v-9.807c0-2.258-3.063-3.377-4.883-1.798c-12.013,10.581-32.788,15.265-49.339,17.826
	l-91.976,13.006l-28.679,4.057c-9.744,0-17.638-6.974-17.638-15.589V91.817c0-19.865,11.71-41.665,29.338-54.88
	c8.573-6.43,18.548-10.832,29.254-11.992c2.802-0.303,5.625-0.293,8.427-0.115c17.941,1.108,117.456,5.803,170.454-23.326
	C295.212-2.857,304.914,2.779,304.914,11.823z"/>
<path style="fill:#954C35;" d="M304.914,11.823v77.987c-0.69,0.042-1.38,0.063-2.081,0.063h-1.276
	c-16.865,0-30.655-12.191-30.655-27.09v-9.807c0-2.258-3.063-3.377-4.872-1.798c-12.024,10.581-32.798,15.265-49.349,17.826
	L124.716,82.01l-28.69,4.057c-9.744,0-17.628-6.974-17.628-15.589V45.813c0-2.928,0.251-5.897,0.753-8.877
	c8.573-6.43,18.548-10.832,29.254-11.992c2.802-0.303,5.625-0.293,8.427-0.115c17.941,1.108,117.455,5.803,170.454-23.326
	C295.212-2.857,304.914,2.779,304.914,11.823z"/>
<g>
	<circle style="fill:#736E6E;" cx="158.661" cy="451.703" r="7.835"/>
	<circle style="fill:#736E6E;" cx="158.661" cy="491.13" r="7.835"/>
</g>
<path style="fill:#65B1CF;" d="M296.644,446.912v65.085h-72.759v-65.085c0-1.202,0.983-2.185,2.185-2.185h68.389
	C295.672,444.727,296.644,445.71,296.644,446.912z"/>
<path style="fill:#7FBED7;" d="M296.644,446.912v65.085h-54.462v-65.085c0-1.202,0.983-2.185,2.185-2.185h50.092
	C295.672,444.727,296.644,445.71,296.644,446.912z"/>
<path style="fill:#65B1CF;" d="M296.644,446.912v24.884h-72.759v-24.884c0-1.202,0.983-2.185,2.185-2.185h68.389
	C295.672,444.727,296.644,445.71,296.644,446.912z"/>
<path style="fill:#B4AAAA;" d="M185.211,426.785v85.211h-15.683v-85.211c0-4.339,3.513-7.842,7.842-7.842
	C181.708,418.944,185.211,422.447,185.211,426.785z"/>
<path style="fill:#3E9DC3;" d="M244.367,444.727c-1.202,0-2.185,0.983-2.185,2.185v24.884h-18.297v-24.884
	c0-1.202,0.983-2.185,2.185-2.185H244.367z"/>
<path style="fill:#DCD2CD;" d="M38.344,436.885v55.905c0,10.602,8.594,19.207,19.206,19.207H28.799
	c-10.612,0-19.206-8.605-19.206-19.207v-55.905c0-49.213,39.95-88.766,88.756-88.766h2.049c3.398-0.01,6.367-0.01,8.939-0.01
	l1.516,1.506C69.731,357.236,38.344,393.266,38.344,436.885z"/>
<path style="fill:#B4AAAA;" d="M290.094,398.801l-27.063-51.519c-2.446-4.656-8.65-5.598-12.384-1.999l-70.051,67.531
	c-1.736,1.674-4.492,1.653-6.202-0.047l-70.03-69.593c-3.787-3.762-10.124-2.714-12.523,2.019
	c-25.159,49.761-27.264,53.622-27.651,54.729c-3.437,9.833,5.887,19.837,16.251,17.282c22.666-5.054,23.782-7.075,28.617-5.409
	c71.328,24.59,67.856,23.435,70.876,22.41c72.02-24.68,67.787-23.559,71.056-22.753l23.345,5.751
	C285.858,420.044,294.75,407.671,290.094,398.801z"/>
<path style="fill:#F2BB88;" d="M502.412,78.019c0-0.69,0,92.143,0,95.426c0,23.629-19.165,42.794-42.794,42.794H434.87
	c-21.465,0-28.836-18.788-29.808-19.823c-8.939-15.275-19.029-19.865-38.173-36.594c-6.054-4.987-7.747-13.77-3.523-20.378
	c0.345-0.544,0.721-1.056,1.129-1.537c5.374-6.503,15.087-7.434,21.601-2.07l7.957,6.367c2.697,2.154,6.681,0.24,6.681-3.21v-80.82
	c0-8.343,7.915-14.397,15.934-12.296c5.489,1.432,9.483,6.43,9.483,12.296c0.575-6.556-1.809-13.059,3.722-18.59
	c7.946-7.946,21.695-2.352,21.695,8.981v9.608c0-8.239,7.789-14.428,15.976-12.296c5.437,1.443,9.452,6.409,9.452,12.296v19.426
	c0-7.11,5.824-12.85,12.944-12.714c0.732,0.01,1.453,0.094,2.143,0.23C498.031,66.288,502.412,71.756,502.412,78.019z"/>
<g>
	<path style="fill:#E3A76F;" d="M426.119,57.359v81.74c0,2.614-2.112,4.726-4.726,4.726s-4.726-2.112-4.726-4.726v-93.22
		C421.874,47.238,425.774,51.818,426.119,57.359z"/>
	<path style="fill:#E3A76F;" d="M451.567,48.566v90.533c0,2.614-2.112,4.726-4.726,4.726c-2.614,0-4.726-2.112-4.726-4.726V36.281
		C447.563,37.724,451.567,42.68,451.567,48.566z"/>
	<path style="fill:#E3A76F;" d="M476.995,58.174v80.914c0,2.614-2.112,4.726-4.726,4.726c-2.614,0-4.726-2.112-4.726-4.726v-93.21
		C472.98,47.322,476.995,52.288,476.995,58.174z"/>
</g>
<path style="fill:#B4AAAA;" d="M502.412,211.91v8.741c0,8.49-6.942,15.432-15.422,15.432h-73.731
	c-8.479,0-15.422-6.942-15.422-15.432v-8.741c0-8.49,6.942-15.432,15.422-15.432h73.731
	C495.469,196.478,502.412,203.42,502.412,211.91z"/>
<path style="fill:#DCD2CD;" d="M502.412,211.91v7.434h-67.008c-8.479,0-15.422-6.942-15.422-15.432v-7.434h67.008
	C495.469,196.478,502.412,203.42,502.412,211.91z"/>
<g>
</g>
<g>
</g>
<g>
</g>
<g>
</g>
<g>
</g>
<g>
</g>
<g>
</g>
<g>
</g>
<g>
</g>
<g>
</g>
<g>
</g>
<g>
</g>
<g>
</g>
<g>
</g>
<g>
</g>
</svg>
