<?xml version="1.0" encoding="iso-8859-1"?>
<!-- Generator: Adobe Illustrator 19.0.0, SVG Export Plug-In . SVG Version: 6.00 Build 0)  -->
<svg version="1.1" id="Layer_1" xmlns="http://www.w3.org/2000/svg" xmlns:xlink="http://www.w3.org/1999/xlink" x="0px" y="0px"
	 viewBox="0 0 512 512" style="enable-background:new 0 0 512 512;" xml:space="preserve">
<path style="fill:#FFB655;" d="M348.097,182.243c-21.871,0-42.754,4.307-61.848,12.115c-2.938,1.202-5.832,2.485-8.682,3.849
	c-7.124,3.411-13.966,7.321-20.479,11.686c-2.605,1.745-5.157,3.564-7.655,5.452c-8.74,6.609-16.798,14.072-24.052,22.264
	c-3.109,3.511-6.069,7.156-8.873,10.924c-1.252,1.683-2.473,3.392-3.659,5.123c-2.376,3.464-4.62,7.024-6.729,10.674
	c-1.055,1.825-2.075,3.671-3.061,5.538c-3.782,7.162-7.048,14.633-9.748,22.367c-4.424,12.669-7.341,26.039-8.525,39.897
	c-0.393,4.619-0.595,9.293-0.595,14.013c0,4.788,0.208,9.528,0.613,14.211c1.219,14.05,4.227,27.597,8.774,40.42
	c2.878,8.116,6.367,15.942,10.432,23.415c4.494,8.259,9.677,16.087,15.472,23.415c3.888,4.917,8.052,9.609,12.466,14.049
	c13.243,13.321,28.752,24.389,45.901,32.556c5.632,2.683,11.44,5.051,17.402,7.087c1.987,0.679,3.991,1.319,6.013,1.923
	c3.795,1.135,7.646,2.134,11.551,2.992c1.953,0.429,3.918,0.824,5.894,1.183c1.978,0.359,3.968,0.684,5.969,0.971
	c1.914,0.275,3.837,0.517,5.769,0.726s3.874,0.386,5.827,0.526c3.902,0.283,7.844,0.429,11.82,0.429
	c65.251,0,121.714-38.336,148.068-93.659c3.576-7.511,6.592-15.335,9.005-23.415c2.268-7.59,3.998-15.413,5.15-23.415
	c1.097-7.65,1.68-15.468,1.68-23.415C512,255.77,438.473,182.243,348.097,182.243z"/>
<path style="fill:#EFC27B;" d="M277.464,99.901c0-54.011-43.94-97.953-97.952-97.953S81.561,45.89,81.561,99.901
	c0,54.01,43.94,97.95,97.952,97.95S277.464,153.909,277.464,99.901z"/>
<path style="fill:#A4E276;" d="M193.583,400.779c-6.064-17.097-9.389-35.48-9.389-54.631c0-18.878,3.22-37.017,9.119-53.908
	c2.701-7.735,5.966-15.206,9.748-22.367c3.943-7.469,8.442-14.603,13.449-21.335c-12.118-2.541-24.498-3.856-36.998-3.856
	C80.529,244.68,0,325.21,0,424.193c0,12.931,10.484,23.415,23.415,23.415h196.072c-5.796-7.327-10.978-15.156-15.472-23.415
	C199.951,416.719,196.46,408.894,193.583,400.779z"/>
<path style="fill:#5C3D0E;" d="M403.676,329.587l-46.829-46.829c-0.618-0.618-1.269-1.193-1.937-1.723
	c-0.111-0.091-0.231-0.164-0.342-0.251c-0.584-0.448-1.179-0.876-1.79-1.26c-0.078-0.048-0.159-0.094-0.237-0.14
	c-0.671-0.411-1.355-0.79-2.056-1.127c-0.028-0.014-0.056-0.027-0.084-0.039c-0.749-0.357-1.516-0.676-2.293-0.949
	c-0.003-0.002-0.006-0.002-0.009-0.003c-0.005-0.002-0.009-0.003-0.014-0.005c-0.613-0.217-1.236-0.407-1.864-0.573
	c-0.039-0.011-0.081-0.02-0.122-0.031c-0.589-0.153-1.18-0.283-1.778-0.389c-0.186-0.033-0.372-0.053-0.559-0.081
	c-0.468-0.073-0.935-0.142-1.403-0.186c-0.687-0.059-1.375-0.098-2.064-0.098c-5.994,0-11.985,2.285-16.557,6.856
	c-9.143,9.146-9.143,23.972,0,33.116l24.362,24.359l5.911,5.911l-5.911,5.91l-24.362,24.361c-9.143,9.146-9.143,23.972,0,33.116
	c0.512,0.512,1.049,0.987,1.594,1.441c0.153,0.128,0.308,0.248,0.464,0.372c0.431,0.342,0.873,0.663,1.321,0.969
	c0.147,0.098,0.29,0.206,0.436,0.3c0.565,0.367,1.143,0.709,1.728,1.021c0.175,0.094,0.354,0.175,0.534,0.264
	c0.423,0.212,0.851,0.411,1.283,0.596c0.25,0.106,0.503,0.211,0.755,0.307c0.387,0.15,0.78,0.283,1.174,0.412
	c0.439,0.142,0.882,0.272,1.33,0.387c0.354,0.094,0.706,0.184,1.063,0.259c0.379,0.081,0.76,0.145,1.144,0.206
	c0.223,0.036,0.445,0.067,0.67,0.097c1.478,0.192,2.971,0.25,4.458,0.159c0.025,0,0.048-0.002,0.073-0.003
	c2.149-0.137,4.283-0.568,6.336-1.293c0.777-0.275,1.542-0.593,2.295-0.949c0.033-0.016,0.066-0.03,0.097-0.044
	c0.693-0.334,1.371-0.71,2.034-1.115c0.089-0.053,0.176-0.1,0.262-0.156c0.607-0.381,1.196-0.804,1.772-1.246
	c0.119-0.092,0.24-0.169,0.357-0.262c0.67-0.534,1.317-1.104,1.936-1.723l46.829-46.833c4.393-4.391,6.859-10.348,6.859-16.556
	C410.536,339.933,408.07,333.978,403.676,329.587z"/>
<g>
	<polygon style="fill:#DD6246;" points="348.097,340.233 348.097,352.056 354.009,346.146 	"/>
	<polygon style="fill:#DD6246;" points="348.097,340.233 348.097,340.233 354.009,346.146 	"/>
</g>
<path style="fill:#FF9811;" d="M348.097,415.027c-2.051,0.724-4.187,1.155-6.336,1.293c-0.025,0.002-0.048,0.003-0.073,0.003
	c-1.488,0.092-2.98,0.034-4.458-0.159c-0.225-0.03-0.446-0.059-0.67-0.097c-0.384-0.061-0.765-0.125-1.144-0.206
	c-0.356-0.075-0.709-0.165-1.063-0.259c-0.446-0.116-0.89-0.245-1.33-0.387c-0.393-0.13-0.787-0.262-1.174-0.412
	c-0.253-0.098-0.506-0.201-0.756-0.307c-0.432-0.186-0.862-0.384-1.283-0.596c-0.178-0.089-0.359-0.17-0.534-0.264
	c-0.587-0.312-1.163-0.654-1.728-1.021c-0.147-0.094-0.29-0.201-0.436-0.3c-0.448-0.306-0.888-0.628-1.321-0.969
	c-0.156-0.123-0.311-0.244-0.464-0.372c-0.546-0.454-1.082-0.929-1.594-1.441c-9.143-9.143-9.143-23.969,0-33.116l24.362-24.362
	v-11.821l0,0l-24.362-24.359c-9.143-9.143-9.143-23.969,0-33.116c4.574-4.571,10.565-6.856,16.557-6.856
	c0.688,0,1.377,0.037,2.064,0.098c0.47,0.044,0.937,0.112,1.403,0.186c0.187,0.028,0.373,0.048,0.559,0.081
	c0.598,0.106,1.189,0.236,1.778,0.389c0.041,0.011,0.083,0.02,0.122,0.031c0.628,0.167,1.25,0.357,1.864,0.573
	c0.005,0.002,0.009,0.003,0.014,0.005v-95.02c-53.835,0-101.687,26.092-131.586,66.292c-5.008,6.733-9.506,13.866-13.449,21.335
	c-3.782,7.162-7.048,14.633-9.748,22.367c-5.899,16.891-9.119,35.03-9.119,53.908c0,19.15,3.325,37.534,9.389,54.631
	c2.878,8.116,6.367,15.942,10.432,23.415c4.494,8.259,9.677,16.087,15.472,23.415c15.552,19.671,35.501,35.715,58.367,46.606
	c7.51,3.578,15.332,6.595,23.415,9.01c7.588,2.268,15.408,3.996,23.415,5.147c7.652,1.097,15.463,1.681,23.415,1.681
	L348.097,415.027L348.097,415.027z"/>
<path style="fill:#DD6246;" d="M348.097,415.027c0.777-0.275,1.542-0.59,2.295-0.949
	C349.639,414.434,348.874,414.752,348.097,415.027L348.097,415.027z"/>
<path style="fill:#ECB45C;" d="M81.561,99.901c0,54.01,43.94,97.95,97.952,97.95V1.948C125.501,1.948,81.561,45.89,81.561,99.901z"
	/>
<path style="fill:#64C37D;" d="M0,424.193c0,12.931,10.484,23.415,23.415,23.415h156.098V244.68C80.529,244.68,0,325.208,0,424.193z
	"/>
<g>
</g>
<g>
</g>
<g>
</g>
<g>
</g>
<g>
</g>
<g>
</g>
<g>
</g>
<g>
</g>
<g>
</g>
<g>
</g>
<g>
</g>
<g>
</g>
<g>
</g>
<g>
</g>
<g>
</g>
</svg>
