<?xml version="1.0" encoding="iso-8859-1"?>
<!-- Generator: Adobe Illustrator 19.0.0, SVG Export Plug-In . SVG Version: 6.00 Build 0)  -->
<svg version="1.1" id="Capa_1" xmlns="http://www.w3.org/2000/svg" xmlns:xlink="http://www.w3.org/1999/xlink" x="0px" y="0px"
	 viewBox="0 0 511.999 511.999" style="enable-background:new 0 0 511.999 511.999;" xml:space="preserve">
<path style="fill:#3993B7;" d="M504.485,167.304c0,15.929-5.132,30.725-13.824,42.804c-2.346,3.268-4.962,6.335-7.799,9.172
	c-13.342,13.342-31.737,21.622-51.976,21.622h-12.631c-9.543,0-18.194,5.624-22.064,14.345l-16.841,37.962
	c-6.075,13.693-26.534,9.353-26.534-5.624v-42.433c0-7.478-3.418-14.595-9.393-19.096c-17.833-13.463-29.411-34.825-29.411-58.753
	c0-20.239,8.28-38.634,21.623-51.976c4.691-4.691,10.004-8.761,15.818-12.059c10.696-6.085,23.036-9.563,36.158-9.563h43.275
	C471.364,93.705,504.485,126.825,504.485,167.304z"/>
<path style="fill:#3E9DC3;" d="M504.485,167.304c0,15.929-5.132,30.725-13.824,42.804c-14.625,9.603-32.118,15.187-50.924,15.187
	c-51.325,0-92.936-41.601-92.936-92.936c0-10.155,1.634-19.938,4.651-29.091c10.696-6.085,23.036-9.563,36.158-9.563h43.275
	C471.364,93.705,504.485,126.825,504.485,167.304z"/>
<path style="fill:#7B5341;" d="M278.046,109.414L35.011,154.128c0,0-63.225,165.483,23.285,223.865c8.083,0,181.722,0,190.178,0
	C334.982,319.609,278.046,109.414,278.046,109.414z"/>
<g>
	<path style="fill:#F2BB88;" d="M59.523,243.703L59.523,243.703c-12.809,0-23.29-10.48-23.29-23.29v-8.804
		c0-12.809,10.48-23.29,23.29-23.29l0,0c12.809,0,23.29,10.48,23.29,23.29v8.804C82.812,233.223,72.332,243.703,59.523,243.703z"/>
	<path style="fill:#F2BB88;" d="M254.858,243.703L254.858,243.703c-12.809,0-23.29-10.48-23.29-23.29v-8.804
		c0-12.809,10.48-23.29,23.29-23.29l0,0c12.809,0,23.29,10.48,23.29,23.29v8.804C278.147,233.223,267.668,243.703,254.858,243.703z"
		/>
</g>
<rect x="115.14" y="298.905" style="fill:#E3A76F;" width="84.094" height="97.176"/>
<rect x="157.192" y="298.905" style="fill:#F2BB88;" width="42.042" height="97.176"/>
<path style="fill:#D63030;" d="M306.855,424.989v36.88c0,4.842-3.93,8.771-8.781,8.771H16.31c-4.852,0-8.791-3.93-8.791-8.771
	v-36.88c0-45.2,35.316-82.139,79.854-84.736c1.544-0.1,3.087-0.14,4.641-0.15c0.13-0.01,0.271-0.01,0.401-0.01h16.142
	c1.571,0,3.076,0.624,4.187,1.734l0,0l35.556,35.566c4.912,4.912,12.871,4.912,17.783,0l35.556-35.565
	c1.111-1.111,2.616-1.735,4.187-1.735h16.142c0.13,0,0.401,0.01,0.401,0.01s3.809,0.07,5.684,0.221
	C272.101,343.431,306.855,380.141,306.855,424.989z"/>
<path style="fill:#F44545;" d="M306.855,424.989v36.88c0,4.842-3.93,8.771-8.781,8.771H53.73c-4.852,0-8.781-3.93-8.781-8.771
	v-36.88c0-41.03,29.101-75.263,67.795-83.162l35.556,35.566c4.912,4.912,12.871,4.912,17.783,0l37.291-37.301h18.595
	c0.13,0,0.401,0.01,0.401,0.01s3.809,0.07,5.684,0.221C272.101,343.431,306.855,380.141,306.855,424.989z"/>
<path style="fill:#F2BB88;" d="M254.999,138.414v82.821c0,48.558-35.867,89.146-82.41,96.584
	c-5.022,0.802-10.165,1.223-15.397,1.223c-53.801,0-97.817-44.017-97.817-97.807v-82.821c0-22.364,18.304-40.659,40.659-40.659
	H214.35C236.705,97.755,254.999,116.049,254.999,138.414z"/>
<path style="fill:#F2D1A5;" d="M254.999,138.414v82.821c0,48.558-35.867,89.146-82.41,96.584
	c-46.543-7.438-82.41-48.027-82.41-96.584v-82.821c0-22.364,18.294-40.659,40.649-40.659h83.523
	C236.705,97.755,254.999,116.049,254.999,138.414z"/>
<path style="fill:#9C6A53;" d="M286.034,78.418v27.407c0,5.884-3.408,11.257-8.771,13.703
	c-78.22,35.737-144.34,46.774-188.006,49.46c-18.284,1.123-32.629,0.792-42.283,0.19c-7.949-0.491-14.134-7.087-14.134-15.047
	V97.183c0-30.705,25.121-55.826,55.826-55.826h95.823c20.861,0,39.095,11.809,48.357,29.081
	c3.418-10.796,13.543-18.675,25.432-18.675h1.103C274.045,51.763,286.034,63.752,286.034,78.418z"/>
<path style="fill:#AD7B64;" d="M286.034,78.418v27.407c0,5.884-3.408,11.257-8.771,13.703
	c-78.22,35.737-144.34,46.774-188.006,49.46c-7.147-1.233-12.49-7.458-12.49-14.856V97.183c0-30.705,25.121-55.826,55.826-55.826
	h51.896c20.861,0,39.095,11.809,48.357,29.081c3.418-10.796,13.543-18.675,25.432-18.675h1.103
	C274.045,51.763,286.034,63.752,286.034,78.418z"/>
<path d="M122.743,341.191c0.008,0.008,0.015,0.015,0.023,0.023c-0.013-0.013-0.028-0.028-0.045-0.045
	C122.727,341.176,122.735,341.183,122.743,341.191z"/>
<path d="M97.094,332.582C98.494,332.548,96.776,332.566,97.094,332.582L97.094,332.582z"/>
<path d="M280.822,353.857c7.087-11.829,12.56-25.863,16.39-42.012c0.962-4.04-1.534-8.09-5.574-9.042
	c-4.04-0.962-8.1,1.534-9.052,5.574c-3.368,14.204-8.08,26.494-14.104,36.809c-24.397-14.325-44.298-12.522-61.73-12.611V314.15
	c24.62-13.172,43.425-35.857,51.465-63.113c15.417-1.674,27.447-14.766,27.447-30.624v-8.801c0-14.355-9.854-26.444-23.146-29.852
	c-0.059-45.528,0.136-43.899-0.18-47.485c4.16-1.744,8.36-3.559,12.601-5.443c10.266,46.898,17.262,103.521,12.38,150.866
	c-0.421,4.13,2.576,7.819,6.706,8.25c4.13,0.421,7.829-2.586,8.25-6.716c1.113-10.806,1.674-22.454,1.674-34.614
	c0-52.487-10.195-103.441-15.518-126.467c3.248-3.97,5.122-9.012,5.122-14.325V78.418c0-32.737-41.287-45.692-61.279-22.194
	C220.535,42.18,203.143,33.84,184.488,33.84H88.665c-34.925,0-63.344,28.409-63.344,63.344c0.112,60.682-0.254,57.478,0.331,60.798
	C5.091,218.18-8.586,306.231,28.068,358.649C10.455,375.771,0,399.559,0,424.99v36.88c0,8.982,7.318,16.29,16.31,16.29h281.764
	c8.992,0,16.3-7.308,16.3-16.29v-36.88C314.373,396.59,301.342,370.888,280.822,353.857z M243.14,248.902
	c-8.532,26.464-29.173,48.059-56.026,57.52c-48.016,16.946-100.392-9.474-115.881-57.52c-5.537-17.069-4.341-26.618-4.341-71.664
	c36.94-0.13,101.306-6.085,180.588-36.96c0,7.379,0,50.76,0,57.389C247.291,217.887,248.967,230.938,243.14,248.902z
	 M122.787,341.236c-0.017-0.017-0.032-0.032-0.045-0.045c-0.024-0.024-0.044-0.044-0.057-0.057
	c-0.015-0.015-0.023-0.023-0.026-0.026c-0.001-0.001-0.001-0.001-0.002-0.002v-20.359c22.186,7.731,46.731,7.78,69.058,0v20.369
	c-1.43,1.43-0.408,0.408-30.955,30.965c-1.963,1.963-5.167,1.971-7.137,0c-24.604-24.612-29.853-29.863-30.784-30.794
	c-0.013-0.013-0.026-0.026-0.038-0.038c-0.01-0.01-0.022-0.022-0.036-0.036C122.773,341.221,122.78,341.229,122.787,341.236z
	 M262.517,197.828c11.029,6.155,7.475,18.732,8.11,22.585c0,6.265-3.669,11.688-8.962,14.225
	C263.018,224.062,262.335,218.149,262.517,197.828z M40.358,97.183c0-26.645,21.673-48.307,48.307-48.307h95.823
	c17.432,0,33.421,9.623,41.731,25.111c3.151,5.86,11.808,5.049,13.793-1.283c6.546-20.658,38.503-16.483,38.503,5.714
	c0,7.032,0,20.381,0,27.407c0,2.957-1.714,5.644-4.371,6.857c-85.526,39.069-166.871,52.494-226.71,48.999
	c-4.03-0.271-7.077-3.613-7.077-7.548C40.358,145.822,40.358,104.461,40.358,97.183z M51.856,197.828
	c0.184,20.594-0.492,26.294,0.852,36.809c-5.293-2.546-8.952-7.959-8.952-14.225C44.453,216.176,40.792,204.026,51.856,197.828z
	 M16.31,463.122c-0.702,0-1.273-0.561-1.273-1.253v-36.88c0-30.776,18.254-58.474,46.082-70.782
	c3.789-1.684,5.513-6.125,3.829-9.924c-1.684-3.789-6.125-5.503-9.914-3.829c-5.413,2.396-10.506,5.273-15.257,8.571
	c-31.142-45.895-19.494-122.125-3.318-175.426c5.243,3.107,9.461,3.121,15.397,3.368v4.792
	c-13.292,3.418-23.136,15.508-23.136,29.852v8.801c0,15.848,12.029,28.94,27.437,30.614c8.04,27.256,26.845,49.941,51.465,63.123
	v18.425c-8.142,0.034-10.231,0.021-10.528,0.007c-1.041,0.025-3.803,0.079-10.413,0.183c-4.15,0.251-7.308,3.809-7.057,7.959
	c0.261,4.14,3.819,7.308,7.959,7.047c19.7-0.298,0.605-0.097,20.309-0.16c6.566,6.566,28.342,28.342,35.095,35.095
	c7.849,7.922,20.714,7.767,28.409,0c6.715-6.715,28.517-28.517,35.095-35.095c9.319,0.047,16.565-0.138,21.031,0.211
	c40.214,2.86,71.814,36.668,71.814,77.167v36.88C299.337,464.346,315.505,462.528,16.31,463.122z"/>
<circle cx="103.231" cy="194.311" r="13.062"/>
<circle cx="215.573" cy="194.311" r="13.062"/>
<path d="M154.714,256.718h14.044c4.152,0,7.518-3.366,7.518-7.518c0-4.152-3.366-7.518-7.518-7.518h-14.044
	c-3.099,0-5.62-2.521-5.62-5.62v-50.864c0-4.152-3.366-7.518-7.518-7.518c-4.152,0-7.518,3.366-7.518,7.518v50.864
	C134.057,247.452,143.324,256.718,154.714,256.718z"/>
<circle cx="157.192" cy="410.165" r="8.714"/>
<circle cx="157.192" cy="442.033" r="8.714"/>
<path d="M170.497,274.801h-29.319c-4.152,0-7.518,3.366-7.518,7.518c0,4.152,3.366,7.518,7.518,7.518h29.319
	c4.152,0,7.518-3.366,7.518-7.518C178.015,278.167,174.649,274.801,170.497,274.801z"/>
<path d="M430.885,86.188c-35.85,1.105-51.003-3.211-73.443,5.848c-3.85,1.554-5.712,5.935-4.157,9.786
	c1.555,3.85,5.934,5.712,9.786,4.157c18.508-7.472,30.223-3.752,67.814-4.755c36.435,0,66.078,29.643,66.078,66.078
	s-29.643,66.078-66.078,66.078h-12.632c-12.506,0-23.865,7.387-28.936,18.819l-16.841,37.961
	c-2.796,6.302-12.143,4.306-12.143-2.572v-42.432c0-9.867-4.627-19.252-12.379-25.104c-32.38-24.447-35.286-70.882-7.21-99.203
	c2.923-2.949,2.902-7.709-0.046-10.633c-2.949-2.923-7.709-2.902-10.633,0.046c-15.198,15.332-23.568,35.588-23.568,57.039
	c0,25.228,12.111,49.433,32.397,64.749c4.01,3.027,6.403,7.926,6.403,13.105v42.432c0,22.908,31.528,29.851,40.924,8.67
	l16.841-37.961c2.662-6.002,8.626-9.88,15.192-9.88h12.632c44.727,0,81.115-36.388,81.115-81.115S475.612,86.188,430.885,86.188z"/>
<path d="M419.876,168.568c4.14-3.864,16.285-12.835,16.285-27.051c0-13.249-10.902-23.324-28.43-23.324
	c-16.7,0-25.394,9.66-25.394,16.285c0,4.554,3.726,6.624,6.9,6.624c6.349,0,4.555-9.523,18.08-9.523
	c8.418,0,14.215,4.14,14.215,11.869c0,9.385-8.694,14.216-13.525,18.77c-3.864,3.45-8.281,8.971-8.281,21.806
	c0,5.934,1.794,7.729,6.348,7.729C420,191.753,406.067,179.839,419.876,168.568z"/>
<path d="M406.213,201.69c-5.106,0-9.246,4.278-9.246,9.385c0,4.969,4.003,9.385,9.246,9.385s9.385-4.417,9.385-9.385
	C415.597,205.969,411.319,201.69,406.213,201.69z"/>
<g>
</g>
<g>
</g>
<g>
</g>
<g>
</g>
<g>
</g>
<g>
</g>
<g>
</g>
<g>
</g>
<g>
</g>
<g>
</g>
<g>
</g>
<g>
</g>
<g>
</g>
<g>
</g>
<g>
</g>
</svg>
