<?xml version="1.0" encoding="iso-8859-1"?>
<!-- Generator: Adobe Illustrator 19.0.0, SVG Export Plug-In . SVG Version: 6.00 Build 0)  -->
<svg version="1.1" id="Capa_1" xmlns="http://www.w3.org/2000/svg" xmlns:xlink="http://www.w3.org/1999/xlink" x="0px" y="0px"
	 viewBox="0 0 512 512" style="enable-background:new 0 0 512 512;" xml:space="preserve">
<path style="fill:#0054A0;" d="M481.912,61.031c0,33.713-27.328,61.041-61.041,61.041c-7.977,0-15.584-1.53-22.564-4.312
	c-3.377-1.345-6.601-2.987-9.65-4.876c-17.308-10.779-28.827-29.966-28.827-51.853c0-17.678,7.515-33.611,19.536-44.749
	c6.067-5.636,13.284-10.04,21.271-12.843C406.971,1.211,413.777,0,420.871,0C454.584,0,481.912,27.328,481.912,61.031z"/>
<path style="fill:#003A7F;" d="M409.835,77.313c0,14.834-4.209,28.703-11.529,40.448c-3.377-1.345-6.601-2.987-9.65-4.876
	c-17.308-10.779-28.827-29.966-28.827-51.853c0-17.678,7.515-33.611,19.536-44.749C397.865,30.243,409.835,52.408,409.835,77.313z"
	/>
<path style="fill:#0054A0;" d="M471.492,200.383v56.575c0,4.538-3.675,8.213-8.213,8.213h-93.358v-64.788
	c0-10.389,3.131-20.06,8.49-28.108c0.534-0.801,1.088-1.591,1.684-2.361c1.109-1.489,2.3-2.916,3.583-4.281
	c9.26-9.866,22.431-16.035,37.039-16.035c14.013,0,26.712,5.687,35.9,14.875c2.382,2.371,4.527,4.999,6.396,7.812
	C468.371,180.334,471.492,189.994,471.492,200.383z"/>
<g>
	<path style="fill:#003A7F;" d="M428.149,169.401v95.77H412.75v-95.77c0-4.25,3.449-7.699,7.699-7.699
		C424.71,161.701,428.149,165.15,428.149,169.401z"/>
	<path style="fill:#003A7F;" d="M399.415,216.652v48.517h-29.494V200.38c0-10.389,3.131-20.06,8.49-28.108
		c0.534-0.801,1.088-1.591,1.684-2.361c3.059,3.059,5.831,6.457,8.254,10.102C395.586,190.884,399.415,203.552,399.415,216.652z"/>
</g>
<path style="fill:#1D71B8;" d="M457.061,164.918l-14.529,13.653c-2.231,2.097-5.718,2.064-7.909-0.075l-13.91-13.578l-13.91,13.578
	c-2.191,2.139-5.678,2.172-7.909,0.075l-14.528-13.653c9.217-9.457,22.1-15.325,36.348-15.325c14.249,0,27.13,5.867,36.348,15.323
	L457.061,164.918z"/>
<path style="fill:#E8A96B;" d="M420.711,164.918L420.711,164.918c-6.212,0-11.247-5.036-11.247-11.247v-19.398h22.494v19.398
	C431.958,159.882,426.923,164.918,420.711,164.918z"/>
<path style="fill:#FCCE99;" d="M461.206,54.214l-1.93,23.232l-2.618,31.28c-1.571,18.807-17.288,33.272-36.157,33.272
	c-11.908,0-22.564-5.759-29.186-14.742c-2.936-3.952-5.071-8.531-6.201-13.52c-0.37-1.632-0.626-3.296-0.77-5.01l-2.741-32.8
	l-1.807-21.712L461.206,54.214L461.206,54.214z"/>
<path style="fill:#E8A96B;" d="M409.835,77.313c0,19.064-6.95,36.536-18.52,49.944c-2.936-3.952-5.071-8.531-6.201-13.52
	c-0.37-1.632-0.626-3.296-0.77-5.01l-2.741-32.8l-1.807-21.712h26.476C408.583,61.503,409.835,69.264,409.835,77.313z"/>
<path style="fill:#0054A0;" d="M468.207,45.899v30.089c-28.549,1.93-48.589-9.352-48.589-9.352v5.171
	c0,2.289-1.96,4.077-4.243,3.894c-1.941-0.156-3.797-0.339-5.572-0.544c-2.125-0.246-4.127-0.524-6.026-0.832
	c-25.552-4.147-31.075-13.294-31.075-13.294V45.899H468.207z"/>
<path style="fill:#003A7F;" d="M409.804,75.157c-2.125-0.246-4.127-0.524-6.026-0.832c-25.552-4.147-31.075-13.294-31.075-13.294
	V45.899h30.367C407.135,54.861,409.517,64.757,409.804,75.157z"/>
<path style="fill:#0054A0;" d="M394.436,77.313c0,32.728-25.767,59.45-58.126,60.969c-0.965,0.051-1.94,0.072-2.915,0.072
	c-11.826,0-22.872-3.367-32.214-9.198c-17.308-10.769-28.827-29.966-28.827-51.843c0-9.435,2.146-18.376,5.964-26.353
	c6.96-14.516,19.505-25.86,34.842-31.249c6.334-2.228,13.14-3.439,20.234-3.439C367.109,16.271,394.436,43.599,394.436,77.313z"/>
<path style="fill:#003A7F;" d="M304.558,76.502c-7.864-9.568-16.672-18.119-26.24-25.542c-3.819,7.977-5.964,16.918-5.964,26.353
	c0,21.876,11.518,41.074,28.827,51.843c9.342,5.831,20.388,9.198,32.214,9.198c0.975,0,1.951-0.021,2.915-0.072
	C330.387,115.923,319.68,94.908,304.558,76.502z"/>
<path style="fill:#0054A0;" d="M384.016,216.654v56.586c0,4.537-3.675,8.213-8.213,8.213h-93.358v-64.799
	c0-10.389,3.131-20.049,8.49-28.098c1.571-2.361,3.326-4.589,5.266-6.642c9.26-9.876,22.431-16.035,37.039-16.035
	c2.69,0,5.338,0.206,7.915,0.616c10.851,1.694,20.563,6.827,27.985,14.249c2.382,2.382,4.527,5.01,6.396,7.812
	C380.895,196.605,384.016,206.265,384.016,216.654z"/>
<g>
	<path style="fill:#003A7F;" d="M340.673,186.606v94.847h-15.399v-94.847c0-4.26,3.449-7.699,7.699-7.699
		C337.224,178.907,340.673,182.346,340.673,186.606z"/>
	<path style="fill:#003A7F;" d="M341.156,166.492c-2.577-0.411-5.225-0.616-7.915-0.616c-14.608,0-27.78,6.16-37.039,16.035
		c-1.94,2.053-3.696,4.281-5.266,6.642c-5.359,8.049-8.49,17.709-8.49,28.098v64.798h24.258
		c19.218-24.31,31.116-53.639,34.216-85.207C341.906,186.244,341.978,176.296,341.156,166.492z"/>
</g>
<path style="fill:#1D71B8;" d="M369.584,181.195l-14.529,13.653c-2.231,2.097-5.718,2.064-7.909-0.075l-13.91-13.578l-13.91,13.578
	c-2.191,2.139-5.678,2.172-7.909,0.075l-14.528-13.653c9.217-9.457,22.1-15.325,36.348-15.325c14.249,0,27.13,5.867,36.348,15.323
	L369.584,181.195z"/>
<path style="fill:#E8A96B;" d="M333.234,181.195L333.234,181.195c-6.212,0-11.247-5.036-11.247-11.247V150.55h22.494v19.398
	C344.482,176.16,339.446,181.195,333.234,181.195z"/>
<path style="fill:#FCCE99;" d="M373.73,70.486l-1.93,23.242l-2.618,31.28c-1.365,16.364-13.459,29.443-29.011,32.553
	c-2.31,0.462-4.702,0.708-7.145,0.708c-17.154,0-31.711-11.949-35.387-28.252c-0.37-1.632-0.626-3.306-0.77-5.01l-2.741-32.8
	l-1.817-21.723h81.419V70.486z"/>
<path style="fill:#E8A96B;" d="M304.558,76.502c-1.684-2.053-3.419-4.055-5.195-6.016h-7.053l1.817,21.723l2.741,32.8
	c0.144,1.704,0.4,3.378,0.77,5.01c3.675,16.302,18.232,28.252,35.387,28.252c2.443,0,4.835-0.246,7.145-0.708
	C336.105,128.036,323.961,100.113,304.558,76.502z"/>
<path style="fill:#0054A0;" d="M380.731,62.181V92.27c-28.549,1.93-48.589-9.363-48.589-9.363v5.174c0,2.274-1.938,4.08-4.204,3.897
	c-4.281-0.345-8.145-0.814-11.636-1.383c-0.524-0.082-1.027-0.175-1.53-0.257c-24.248-4.261-29.545-13.027-29.545-13.027v-15.13
	H380.731z"/>
<path style="fill:#003A7F;" d="M304.558,76.502c-4.158-5.072-8.593-9.845-13.253-14.321h-6.077v15.132
	c0,0,5.297,8.767,29.545,13.027C311.632,85.587,308.223,80.967,304.558,76.502z"/>
<path style="fill:#A5C6E3;" d="M293.618,180.259c0,63.741-51.679,115.42-115.42,115.42c-24.864,0-47.901-7.874-66.749-21.261
	c-9.783-6.94-18.427-15.368-25.613-24.946c-2.063-2.741-4.004-5.564-5.81-8.49v-0.01c-6.765-10.913-11.765-23.047-14.578-35.982
	c-1.755-7.966-2.669-16.24-2.669-24.73c0-63.741,51.679-115.42,115.42-115.42c8.49,0,16.774,0.914,24.741,2.669
	c12.935,2.813,25.059,7.812,35.972,14.578c2.926,1.807,5.759,3.747,8.5,5.81c9.578,7.176,18.006,15.83,24.946,25.603
	C285.744,132.348,293.618,155.385,293.618,180.259z"/>
<path style="fill:#D2E3F1;" d="M238.911,82.086L80.026,240.972c-6.765-10.913-11.765-23.047-14.578-35.982L202.94,67.509
	C215.875,70.321,227.999,75.321,238.911,82.086z"/>
<path style="fill:#F9A13E;" d="M236.849,171.578c-6.596,14.53-16.367,22.728-16.367,22.728h-85.903c0,0-11.843-5.798-18.08-21.41
	c-4.067-10.18-5.751-24.536-0.214-44.175c14.024-49.756,107.993-50.514,122.722-6.408
	C245.747,142.512,242.432,159.304,236.849,171.578z"/>
<g>
	<path style="fill:#E2780E;" d="M236.849,171.578c-6.596,14.53-16.367,22.728-16.367,22.728H197.56
		c0-15.015,11.374-27.227,25.352-27.227C228.055,167.079,232.851,168.732,236.849,171.578z"/>
	<path style="fill:#E2780E;" d="M157.495,194.306h-22.916c0,0-11.843-5.798-18.08-21.41c4.31-3.642,9.749-5.817,15.65-5.817
		C146.126,167.079,157.495,179.291,157.495,194.306z"/>
</g>
<path style="fill:#D2E3F1;" d="M234.37,321.552v69.377c0,4.538-3.675,8.213-8.213,8.213H129.36c-4.527,0-8.213-3.675-8.213-8.213
	v-69.377c0-12.442,3.49-24.022,9.455-33.652c10.153-16.364,27.482-27.153,47.162-27.153c15.625,0,29.781,6.806,40.027,17.801
	c2.659,2.854,5.051,5.985,7.124,9.363C230.89,297.539,234.37,309.109,234.37,321.552z"/>
<g>
	<path style="fill:#A5C6E3;" d="M197.146,399.141H129.36c-4.527,0-8.213-3.675-8.213-8.213v-49.143
		C157.211,341.786,187.711,366.064,197.146,399.141z"/>
	<path style="fill:#A5C6E3;" d="M185.176,281.874V397.16c0,0.688-0.092,1.345-0.267,1.981h-14.865
		c-0.175-0.636-0.267-1.294-0.267-1.981V281.874c0-4.25,3.449-7.699,7.699-7.699C181.726,274.174,185.176,277.624,185.176,281.874z"
		/>
</g>
<path style="fill:#5A9BCC;" d="M218.283,279.092l-20.645,20.84l-13.982-14.67l-5.893-6.17l-5.841,6.129l-14.033,14.711
	l-20.645-20.84c0.431-0.472,0.862-0.944,1.314-1.396c10.163-10.502,23.991-16.959,39.206-16.959
	c15.327,0,29.227,6.539,39.411,17.165c0.205,0.216,0.411,0.431,0.616,0.647C217.955,278.732,218.119,278.907,218.283,279.092z"/>
<path style="fill:#FCCE99;" d="M177.762,279.09L177.762,279.09c-6.925,0-12.538-5.613-12.538-12.538v-24.159H190.3v24.159
	C190.3,273.476,184.687,279.09,177.762,279.09z"/>
<circle style="fill:#8AE46D;" cx="121.15" cy="420.78" r="68.73"/>
<g>
	<path style="fill:#FFF4EB;" d="M160.115,396.347l-7.657-7.657c-2.808-2.808-7.36-2.808-10.167,0l-33.618,33.618l-12.741-12.741
		c-2.808-2.808-7.36-2.808-10.167,0l-7.657,7.657c-2.808,2.808-2.808,7.36,0,10.168l25.482,25.482c2.808,2.808,7.36,2.808,10.167,0
		l46.359-46.359C162.923,403.707,162.923,399.155,160.115,396.347z"/>
</g>
<path style="fill:#5A9BCC;" d="M218.284,354.042h-22.087c-4.252,0-7.699-3.447-7.699-7.699c0-4.253,3.447-7.699,7.699-7.699h22.087
	c4.252,0,7.699,3.447,7.699,7.699S222.536,354.042,218.284,354.042z"/>
<g>
	<ellipse style="fill:#FCCE99;" cx="222.91" cy="194.31" rx="16.67" ry="17.907"/>
	<ellipse style="fill:#FCCE99;" cx="132.15" cy="194.31" rx="16.67" ry="17.907"/>
</g>
<path style="fill:#FEE6CC;" d="M222.91,146.521l-2.162,27.825l-2.912,37.459c-1.747,22.518-19.271,39.834-40.31,39.834
	c-21.032,0-38.556-17.316-40.303-39.834l-3.053-39.276l-2.021-26.008H222.91z"/>
<path style="fill:#FCCE99;" d="M222.91,146.521l-2.162,27.825c-6.934,1.402-13.972,2.103-21.103,2.103
	c-23.468,0-42.24-7.667-52.086-12.74c-3.256,2.902-7.72,6.189-13.39,8.82l-2.021-26.008H222.91z"/>
<path style="fill:#F9A13E;" d="M214.489,132.584c14.036,11.4,38.598,16.876,38.598,16.876c-56.844,35.061-107.372,0.37-107.372,0.37
	s-6.465,9.037-18.922,13.654v-30.9H214.489z"/>
<path style="fill:#E2780E;" d="M199.517,172.807c-8.665,0-16.466-1.056-23.069-2.49c-13.112-2.85-23.323-7.511-29.275-10.699
	c-3.758,3.558-9.69,8.115-17.705,11.086c-3.989,1.477-8.418-0.556-9.895-4.543c-1.478-3.987,0.556-8.417,4.543-9.895
	c9.919-3.676,15.314-10.885,15.367-10.958c2.441-3.411,7.131-4.2,10.589-1.825c0.102,0.068,12.044,8.075,30.236,11.912
	c18.029,3.803,35.578,2.369,52.373-4.249c-7.695-2.982-16.349-7.146-23.047-12.586c-3.301-2.681-3.803-7.53-1.122-10.83
	c2.682-3.301,7.53-3.805,10.831-1.122c12.429,10.094,35.195,15.287,35.424,15.338c3.055,0.686,5.394,3.153,5.911,6.241
	c0.517,3.089-0.884,6.183-3.549,7.827C236.323,168.846,216.301,172.807,199.517,172.807z"/>
<g>
	<path style="fill:#1D71B8;" d="M156.008,199.213c-4.252,0-7.699-3.447-7.699-7.699v-0.958c0-4.253,3.447-7.699,7.699-7.699
		s7.699,3.447,7.699,7.699v0.958C163.707,195.766,160.26,199.213,156.008,199.213z"/>
	<path style="fill:#1D71B8;" d="M198.942,199.213c-4.252,0-7.699-3.447-7.699-7.699v-0.958c0-4.253,3.447-7.699,7.699-7.699
		s7.699,3.447,7.699,7.699v0.958C206.642,195.766,203.195,199.213,198.942,199.213z"/>
</g>
<path style="fill:#E8A96B;" d="M178.197,230.637c-5.647,0-10.939-1.794-14.901-5.05c-3.285-2.7-3.76-7.551-1.06-10.836
	s7.553-3.759,10.837-1.06c1.179,0.968,3.094,1.547,5.124,1.547s3.945-0.578,5.124-1.547c3.285-2.702,8.137-2.227,10.837,1.06
	c2.7,3.285,2.225,8.137-1.06,10.836C189.135,228.844,183.843,230.637,178.197,230.637z"/>
<polygon style="fill:#FEC007;" points="443.466,450.029 390.093,493.854 324.186,413.585 314.413,401.687 287.609,369.052 
	340.981,325.227 367.785,357.862 377.559,369.76 "/>
<g>
	
		<rect x="309.136" y="323.519" transform="matrix(0.6346 0.7728 -0.7728 0.6346 394.8103 -118.9769)" style="fill:#FE9700;" width="28.189" height="69.058"/>
	
		<rect x="385.829" y="422.813" transform="matrix(0.6346 0.7728 -0.7728 0.6346 501.334 -145.6993)" style="fill:#FE9700;" width="37.849" height="69.058"/>
</g>
<rect x="263.405" y="278.56" transform="matrix(-0.7728 0.6346 -0.6346 -0.7728 695.6058 366.9401)" style="fill:#1E70AD;" width="37.442" height="58.827"/>
<g>
	<path style="fill:#5A9BCC;" d="M357.439,328.256l-70.061,57.529c-2.798,2.298-6.929,1.892-9.226-0.906l-8.416-10.25
		c-8.793-10.708-7.24-26.516,3.468-35.309l41.417-34.009c10.708-8.793,26.516-7.24,35.309,3.468l8.416,10.25
		C360.643,321.827,360.237,325.958,357.439,328.256z"/>
	<path style="fill:#5A9BCC;" d="M367.496,483.356l70.061-57.529c2.798-2.298,6.929-1.892,9.226,0.906l8.416,10.25
		c8.793,10.708,7.24,26.516-3.468,35.309L410.315,506.3c-10.708,8.793-26.516,7.24-35.309-3.468l-8.416-10.25
		C364.292,489.785,364.698,485.654,367.496,483.356z"/>
</g>
<path style="fill:#1E70AD;" d="M217.79,278.547c-0.205-0.216-0.411-0.431-0.616-0.647c-10.656,4.26-21.99,6.775-33.518,7.361
	l13.982,14.67l20.645-20.84C218.119,278.907,217.955,278.732,217.79,278.547z M137.244,279.092l20.645,20.84l14.033-14.711
	c-11.59-0.688-22.842-3.254-33.364-7.525C138.106,278.147,137.675,278.619,137.244,279.092z"/>
<path style="fill:#5A9BCC;" d="M84.211,65.795c-63.217,51.91-72.384,145.233-20.474,208.451
	c51.91,63.217,145.234,72.384,208.451,20.474s72.383-145.234,20.474-208.451C240.752,23.052,147.428,13.886,84.211,65.795z
	 M251.445,269.458c-49.262,40.45-121.996,33.306-162.446-15.955c-40.45-49.262-33.306-121.996,15.955-162.446
	S226.95,57.75,267.4,107.012C307.85,156.273,300.706,229.008,251.445,269.458z"/>
<rect x="311.439" y="378" transform="matrix(-0.7728 0.6346 -0.6346 -0.7728 858.1122 464.2166)" style="fill:#FE9700;" width="69.058" height="15.397"/>
<g>
</g>
<g>
</g>
<g>
</g>
<g>
</g>
<g>
</g>
<g>
</g>
<g>
</g>
<g>
</g>
<g>
</g>
<g>
</g>
<g>
</g>
<g>
</g>
<g>
</g>
<g>
</g>
<g>
</g>
</svg>
