<?xml version="1.0" encoding="iso-8859-1"?>
<!-- Generator: Adobe Illustrator 19.0.0, SVG Export Plug-In . SVG Version: 6.00 Build 0)  -->
<svg version="1.1" id="Capa_1" xmlns="http://www.w3.org/2000/svg" xmlns:xlink="http://www.w3.org/1999/xlink" x="0px" y="0px"
	 viewBox="0 0 512 512" style="enable-background:new 0 0 512 512;" xml:space="preserve">
<path style="fill:#F9A13E;" d="M437.488,159.053c-10.882,24.089-28.373,37.757-28.373,37.757h-141.99c0,0-17.519-7.982-28.143-29.18
	c-1.057-2.094-2.036-4.322-2.93-6.685c-5.83-15.454-7.77-36.672,0.826-65.054c3.323-10.969,9.346-20.382,17.318-28.258
	c47.669-47.228,164.677-39.755,185.539,18.403C450.339,115.6,445.883,140.438,437.488,159.053z"/>
<g>
	<path style="fill:#E2780E;" d="M238.982,167.63c-1.057-2.094-2.036-4.322-2.93-6.685c-5.83-15.454-7.77-36.672,0.826-65.054
		c3.323-10.969,9.346-20.382,17.318-28.258c3.026,9.778,4.754,19.988,5.081,30.419C260.084,123.284,252.871,147.469,238.982,167.63z
		"/>
	<path style="fill:#E2780E;" d="M437.488,159.052c-10.881,24.093-28.373,37.757-28.373,37.757h-40.936
		c0-24.789,20.16-44.949,44.949-44.949C422.095,151.86,430.458,154.505,437.488,159.052z"/>
	<path style="fill:#E2780E;" d="M308.057,196.81h-40.936c0,0-21.158-9.639-31.064-35.867c7.528-5.695,16.901-9.083,27.051-9.083
		C287.896,151.86,308.057,172.021,308.057,196.81z"/>
</g>
<path style="fill:#D2E3F1;" d="M432.069,392.602v111.157c0,4.553-3.688,8.241-8.241,8.241h-170.66c-4.543,0-8.241-3.688-8.241-8.241
	V392.602c0-19.141,5.759-36.953,15.628-51.777c16.771-25.188,45.431-41.784,77.954-41.784c25.827,0,49.232,10.477,66.169,27.392
	c4.378,4.389,8.334,9.21,11.765,14.402C426.321,355.66,432.069,373.461,432.069,392.602z"/>
<g>
	<path style="fill:#A5C6E3;" d="M345.75,331.554V512h-15.453V331.554c0-4.265,3.461-7.726,7.726-7.726
		C342.299,323.827,345.75,327.288,345.75,331.554z"/>
	<path style="fill:#A5C6E3;" d="M416.445,340.833l-35.658,33.512c-5.406,5.081-13.839,5-19.14-0.174l-23.142-22.585l-23.142,22.585
		c-5.301,5.174-13.746,5.255-19.14,0.174l-35.669-33.523c16.773-25.183,45.425-41.783,77.951-41.783
		c25.833,0,49.23,10.475,66.165,27.399C409.056,330.822,413.012,335.648,416.445,340.833z"/>
</g>
<path style="fill:#5A9BCC;" d="M405.481,327.267l-29.247,27.484c-2.726,2.562-6.987,2.522-9.664-0.092l-28.064-27.393
	l-28.064,27.393c-2.677,2.613-6.938,2.654-9.664,0.092l-29.247-27.484c16.983-17.426,40.722-28.238,66.975-28.238
	c25.839,0,49.235,10.47,66.161,27.41C404.938,326.71,405.21,326.981,405.481,327.267z"/>
<path style="fill:#FCCE99;" d="M338.502,327.267L338.502,327.267c-11.446,0-20.724-9.278-20.724-20.724V270.8h41.448v35.743
	C359.227,317.988,349.948,327.267,338.502,327.267z"/>
<path style="fill:#5A9BCC;" d="M405.481,427.978h-36.508c-4.267,0-7.726-3.459-7.726-7.726s3.459-7.726,7.726-7.726h36.508
	c4.267,0,7.726,3.459,7.726,7.726C413.207,424.519,409.748,427.978,405.481,427.978z"/>
<g>
	<circle style="fill:#FCCE99;" cx="413.131" cy="196.81" r="27.555"/>
	<circle style="fill:#FCCE99;" cx="263.101" cy="196.81" r="27.555"/>
</g>
<path style="fill:#FEE6CC;" d="M413.128,123.278l-3.573,42.815l-4.814,57.639c-2.888,34.649-31.853,61.293-66.629,61.293
	c-34.765,0-63.729-26.645-66.618-61.293l-5.046-60.435l-3.341-40.019H413.128z"/>
<path style="fill:#FCCE99;" d="M413.128,123.278l-3.573,42.815c-11.46,2.158-23.095,3.236-34.881,3.236
	c-38.79,0-69.819-11.797-86.094-19.604c-5.382,4.466-12.76,9.523-22.132,13.572l-3.341-40.019L413.128,123.278L413.128,123.278z"/>
<path style="fill:#F9A13E;" d="M399.208,101.833c23.2,17.542,63.799,25.968,63.799,25.968c-93.959,53.95-177.477,0.57-177.477,0.57
	s-10.686,13.905-31.277,21.01l8.854-47.547L399.208,101.833L399.208,101.833z"/>
<path style="fill:#E2780E;" d="M374.424,159.6c-13.871,0.001-26.355-1.572-36.923-3.71c-24.014-4.859-41.881-13.189-50.473-17.77
	c-5.429,5.287-15.579,13.501-30.256,18.565c-4.032,1.39-8.432-0.749-9.824-4.784c-1.392-4.034,0.75-8.432,4.784-9.824
	c17.898-6.176,27.578-18.294,27.671-18.414c2.442-3.179,6.91-3.961,10.287-1.802c0.191,0.121,20.479,12.843,51.476,19.004
	c34.721,6.901,68.379,3.261,100.314-10.807c-14.249-4.429-33.223-11.695-46.933-22.061c-3.403-2.573-4.076-7.419-1.503-10.823
	s7.419-4.076,10.823-1.503c21.563,16.304,60.32,24.485,60.709,24.565c3.142,0.652,5.554,3.179,6.06,6.348
	c0.506,3.169-0.999,6.32-3.783,7.918C433.45,153.682,401.332,159.6,374.424,159.6z"/>
<g>
	<path style="fill:#1D71B8;" d="M302.544,200.236c-4.267,0-7.726-3.459-7.726-7.726v-1.475c0-4.267,3.459-7.726,7.726-7.726
		s7.726,3.459,7.726,7.726v1.475C310.27,196.777,306.811,200.236,302.544,200.236z"/>
	<path style="fill:#1D71B8;" d="M373.512,200.236c-4.267,0-7.726-3.459-7.726-7.726v-1.475c0-4.267,3.459-7.726,7.726-7.726
		s7.726,3.459,7.726,7.726v1.475C381.238,196.777,377.779,200.236,373.512,200.236z"/>
</g>
<path style="fill:#E8A96B;" d="M339.221,248.591c-8.078,0-15.623-2.367-21.242-6.663c-3.39-2.592-4.036-7.441-1.445-10.831
	c2.594-3.39,7.443-4.035,10.831-1.445c2.897,2.216,7.219,3.486,11.856,3.486c4.638,0,8.959-1.271,11.856-3.486
	c3.39-2.592,8.239-1.946,10.831,1.444c2.592,3.39,1.946,8.239-1.444,10.831C354.844,246.224,347.3,248.591,339.221,248.591z"/>
<path style="fill:#FCE790;" d="M145.24,0.022c53.821,1.104,97.927,44.681,99.641,98.485c1.047,32.85-13.475,62.343-36.741,81.677
	v16.895c0,3.638-2.949,6.587-6.587,6.587h-57.081c-55.93,0-102.454-44.526-103.196-100.451C40.513,45.628,87.559-1.161,145.24,0.022
	z"/>
<g>
	<path style="fill:#5A9BCC;" d="M107.085,65.34H82.733c-4.267,0-7.726,3.459-7.726,7.726s3.459,7.726,7.726,7.726h16.626v40.771
		c0,3.934-3.2,7.134-7.134,7.134h-1.672c-3.934,0-7.134-3.2-7.134-7.134c0-4.267-3.459-7.726-7.726-7.726s-7.726,3.459-7.726,7.726
		c0,12.455,10.132,22.587,22.587,22.587h1.672c12.455,0,22.587-10.132,22.587-22.587V73.066
		C114.812,68.799,111.352,65.34,107.085,65.34z"/>
	<path style="fill:#5A9BCC;" d="M141.456,65.34c-12.969,0-23.52,10.551-23.52,23.52v31.771c0,12.969,10.551,23.52,23.52,23.52
		c12.969,0,23.52-10.551,23.52-23.52V88.86C164.976,75.891,154.425,65.34,141.456,65.34z M149.523,120.631
		c0,4.448-3.619,8.067-8.067,8.067s-8.067-3.619-8.067-8.067V88.86c0-4.448,3.619-8.067,8.067-8.067s8.067,3.619,8.067,8.067
		V120.631z"/>
	<path style="fill:#5A9BCC;" d="M207.602,97.912c1.908-3.219,3.023-6.961,3.023-10.967c0-11.913-9.693-21.606-21.606-21.606h-13.067
		c-4.267,0-7.726,3.459-7.726,7.726v63.358c0,4.267,3.459,7.726,7.726,7.726h16.758c14.075,0,25.526-11.451,25.526-25.526
		C218.237,110.105,214.036,102.552,207.602,97.912z M195.173,86.946c0,3.393-2.761,6.153-6.153,6.153h-5.341V80.793h5.341
		C192.412,80.793,195.173,83.553,195.173,86.946z M192.71,128.698h-9.032v-20.147h5.341h3.691c5.554,0,10.073,4.519,10.073,10.073
		C202.784,124.179,198.265,128.698,192.71,128.698z"/>
</g>
<g>
</g>
<g>
</g>
<g>
</g>
<g>
</g>
<g>
</g>
<g>
</g>
<g>
</g>
<g>
</g>
<g>
</g>
<g>
</g>
<g>
</g>
<g>
</g>
<g>
</g>
<g>
</g>
<g>
</g>
</svg>
