<?xml version="1.0" encoding="iso-8859-1"?>
<!-- Generator: Adobe Illustrator 19.0.0, SVG Export Plug-In . SVG Version: 6.00 Build 0)  -->
<svg version="1.1" id="Capa_1" xmlns="http://www.w3.org/2000/svg" xmlns:xlink="http://www.w3.org/1999/xlink" x="0px" y="0px"
	 viewBox="0 0 481.705 481.705" style="enable-background:new 0 0 481.705 481.705;" xml:space="preserve">
<path style="fill:#FFD700;" d="M240.852,9.705c-97.202,0-176,66.998-176,154.666c0,41.189,17.411,97.556,45.942,145.762
	c17.177,29.021,54.629,82.293,54.629,115.572h150.857c0-33.279,37.452-86.551,54.629-115.572
	c28.532-48.206,45.942-104.573,45.942-145.762C416.852,76.703,338.054,9.705,240.852,9.705L240.852,9.705z"/>
<path style="fill:#FFE67D;" d="M255.969,28.906c-6.12,0.033-12.235,0.389-18.317,1.066c84.611,8.39,150.317,69.769,150.317,148.463
	c0,34.139-12.439,79.041-33.351,120.532c4.009-6.45,7.735-12.389,10.717-17.428c23.993-40.537,38.633-87.936,38.633-122.572
	C403.969,85.245,337.706,28.906,255.969,28.906L255.969,28.906z"/>
<path style="fill:#606EEF;" d="M306.804,449.143H174.901c-8.837,0-16-7.163-16-16v-0.561c0.096-8.328,6.926-15.001,15.254-14.904
	c0.249,0.003,0.498,0.012,0.746,0.027h131.902c8.313-0.509,15.464,5.818,15.973,14.131c0.015,0.249,0.024,0.497,0.027,0.746v0.561
	C322.804,441.98,315.64,449.143,306.804,449.143z"/>
<path style="fill:#5358A1;" d="M172.852,449.145h136c8.837,0,16,7.163,16,16v0.56c0,8.837-7.163,16-16,16h-136
	c-8.837,0-16-7.163-16-16v-0.56C156.852,456.308,164.016,449.145,172.852,449.145z"/>
<circle style="fill:#F4393D;" cx="240.852" cy="97.705" r="24"/>
<g>
	<path style="fill:#FFD700;" d="M440.852,161.705h32v16h-32V161.705z"/>
	<path style="fill:#FFD700;" d="M8.852,161.705h32v16h-32V161.705z"/>
	<path style="fill:#FFD700;" d="M396.593,327.359l11.312-11.314l22.629,22.625l-11.312,11.314L396.593,327.359z"/>
	<path style="fill:#FFD700;" d="M71.148,11.313L82.461,0l22.625,22.625L93.773,33.938L71.148,11.313z"/>
	<path style="fill:#FFD700;" d="M383.279,26.706l22.627-22.627l11.313,11.313l-22.627,22.627L383.279,26.706z"/>
	<path style="fill:#FFD700;" d="M52.573,340.048L75.2,317.421l11.313,11.313l-22.627,22.627L52.573,340.048z"/>
</g>
<path style="fill:#F4393D;" d="M224.852,153.705h32l8,160h-48L224.852,153.705z"/>
<g>
</g>
<g>
</g>
<g>
</g>
<g>
</g>
<g>
</g>
<g>
</g>
<g>
</g>
<g>
</g>
<g>
</g>
<g>
</g>
<g>
</g>
<g>
</g>
<g>
</g>
<g>
</g>
<g>
</g>
</svg>
